<svg width="76" height="81" viewBox="0 0 76 81" fill="none" xmlns="http://www.w3.org/2000/svg">
<g clip-path="url(#clip0_95_2659)">
<path fill-rule="evenodd" clip-rule="evenodd" d="M48.0603 53.5436C48.6585 53.4021 49.7271 52.8836 50.3437 52.6339L65.8149 46.323C65.6889 46.9147 65.0864 47.9916 64.8301 48.6192C64.5713 49.2525 64.6343 49.1651 64.0072 49.4139L48.9856 55.5917C49.0966 56.3158 49.3319 56.8343 49.38 57.6707C49.5059 59.8387 49.1334 61.896 47.9912 63.7211C46.7748 65.666 45.0144 67.3838 42.4634 68.3708C37.7786 70.1826 32.2507 68.9601 29.1977 65.428C28.8969 65.0793 28.2961 64.2387 28.0784 64.0681C26.8374 64.4268 23.4854 66.0697 22.6904 66.1954C22.2916 65.5104 21.4477 65.2399 21.2046 64.5209C21.8448 64.3428 26.8733 62.2871 27.1173 62.0832C26.6922 60.4545 26.366 59.4625 26.5401 57.5475C27.161 50.7064 34.8769 45.8661 42.4599 48.7365C44.5928 49.5438 47.2269 51.6535 48.0603 53.5427V53.5436ZM45.9711 43.1455L46.8255 43.1538V45.7379L45.9693 45.7371L45.9711 43.1455ZM39.058 43.1355L39.8512 43.1471C39.9203 43.6215 39.8687 44.3497 39.8722 44.8574C39.8792 45.7371 40.0681 45.8253 39.0405 45.7163L39.0571 43.1355H39.058ZM40.2648 45.7379C40.2613 45.3792 41.1358 43.3427 41.2836 43.1313L42.1337 43.1363C42.2841 43.4151 43.1271 45.4924 43.1551 45.7371L42.32 45.7404L42.1241 45.3043L41.2285 45.3085L41.0222 45.7412L40.2657 45.7371L40.2648 45.7379ZM25.105 43.108L24.0669 45.698C25.0569 45.7088 24.7499 45.8719 25.105 45.2927L25.9795 45.2827C26.4176 45.8553 25.9165 45.6855 27.0027 45.7246C26.9187 45.2719 26.2471 43.4243 25.9795 43.1188L25.105 43.108ZM48.2125 43.1838C46.6436 43.7097 47.1867 46.3197 49.289 45.7371C50.8273 45.311 50.3052 42.4822 48.2125 43.1838ZM33.7986 43.1263C32.1571 43.4093 32.3382 45.9876 34.4624 45.7537C36.0444 45.5798 36.0566 42.7368 33.7986 43.1263ZM52.4417 44.4097C52.1128 44.2615 52.3175 44.4538 51.8968 43.8229C51.6913 43.515 51.5916 43.4343 51.4648 43.1588L50.62 43.1546L50.6235 45.7512L51.3931 45.7537L51.4255 44.4388C52.2519 44.8924 51.7893 45.9693 53.2182 45.7288L53.234 43.1613C52.1286 43.0731 52.3944 43.3352 52.4408 44.4097H52.4417ZM45.5968 43.1738L43.003 43.1355L42.9872 43.7389L43.8198 43.7805L43.8469 45.7288L44.6549 45.7446L44.6882 43.7938L45.6012 43.7563L45.5968 43.1738ZM38.5132 44.8366L37.8791 44.7076C37.5442 45.1603 37.427 45.2769 36.8935 45.0413C36.7825 44.7609 36.688 44.1392 36.918 43.8604C37.2687 43.4351 37.6439 43.8404 37.8739 44.0326L38.5237 43.8962C38.2735 42.7643 35.8118 42.5879 35.9456 44.6086C36.0645 46.4012 38.7519 45.896 38.5132 44.8366ZM31.5808 45.0222C31.4724 45.1653 31.4007 45.311 31.0902 45.2344C30.8707 45.1803 30.7658 44.9573 30.6153 44.8191L29.9612 44.8391C30.0443 46.0575 31.7207 45.9202 32.1842 45.435C32.5647 45.0363 32.4448 44.4821 32.0391 44.2449C31.5336 43.9494 30.8436 44.1292 30.8978 43.6065C31.6315 43.3377 30.8786 43.9028 32.2979 43.8662C32.2358 42.7493 30.4623 42.9416 30.13 43.4809C29.454 44.5811 31.4015 44.4313 31.5808 45.0214V45.0222ZM28.8103 44.939C28.562 45.6555 28.0976 45.0455 27.9035 44.8216L27.1898 44.8374C27.2441 46.0067 28.9984 45.966 29.4723 45.3509C29.8257 44.8924 29.6009 44.4296 29.2616 44.2299C28.8296 43.9752 28.2095 44.0834 28.095 43.6906C28.3381 43.4434 28.3941 43.4892 28.6765 43.7031C29.0403 43.9777 28.9905 43.8737 29.51 43.8687C29.5231 42.7718 27.7679 42.9432 27.4268 43.4035C26.6468 44.4546 28.5454 44.5503 28.8112 44.9381L28.8103 44.939ZM54.7049 20.0556L62.1611 20.0764C62.5783 21.7426 62.831 23.8499 63.0968 25.546C63.3662 27.2679 63.6548 29.1637 64.0064 30.8832L64.8975 36.2836C65.0724 38.0014 65.5919 39.9055 65.7895 41.7215L60.8353 41.6915L59.9967 36.9452L56.8729 36.9777L55.973 41.7065L51.0625 41.6849L54.7049 20.0548V20.0556ZM40.4922 20.0307L50.9786 20.0723L50.9594 24.9709L45.4787 24.9859L45.4918 28.4505L50.9532 28.4572L50.9366 33.3083L45.4455 33.3433L45.4437 41.6724L40.4572 41.6641L40.4922 20.0298V20.0307ZM26.129 20.0007L31.0727 20.0315C31.2328 21.2283 31.0342 25.8997 30.9984 27.7115C30.9949 27.8679 30.9704 28.1626 30.98 28.2999C31.0063 28.6877 31.0596 28.6677 31.1383 28.7501C31.3403 28.3598 31.7033 27.0157 31.8266 26.5497C32.0312 25.779 32.2726 25.0724 32.4772 24.3301C32.6652 23.6476 33.5494 20.3927 33.8493 20.0182L38.7843 20.0265C38.7195 20.58 36.6627 27.193 36.3164 28.2316C35.6692 30.1733 35.6946 29.9094 36.0111 30.9597C36.2849 31.8669 39.3028 41.084 39.3501 41.684L34.1432 41.6574C33.5765 40.0221 33.0902 38.3151 32.6014 36.7372L31.0955 31.742C30.8392 32.0034 30.9529 32.4661 30.9695 33.0395C30.9809 33.4273 31.0001 33.7935 31.0045 34.2013C31.0133 35.0344 31.029 35.8658 31.0412 36.6989C31.0587 37.884 31.189 40.6204 31.0124 41.6666L26.0853 41.6424L26.1282 19.9999L26.129 20.0007ZM11.7493 19.9807L16.6763 20.0057C16.8661 21.4122 16.4245 29.0789 16.5338 29.3427C16.8285 28.9257 18.2855 23.6135 18.7122 22.2985C18.9003 21.7193 19.1565 20.4551 19.4197 19.9916L24.3888 19.9982C24.3949 20.4634 23.0193 24.737 22.7814 25.4286C22.5068 26.2284 22.2217 27.2596 21.9663 28.1334C21.6261 29.2952 21.2011 29.7513 21.6218 30.9481C22.2051 32.6034 22.784 34.5917 23.3175 36.3202C23.8745 38.1245 24.5007 39.9047 25.021 41.6524L19.7258 41.6416C19.6112 40.8701 19.181 39.918 18.9475 39.0567C18.7288 38.2494 18.4114 37.2424 18.1578 36.4675C17.8701 35.5878 16.7892 31.891 16.5329 31.4291C16.5303 31.4358 16.6641 40.6238 16.6554 41.6424L11.7056 41.6316L11.7484 19.9816L11.7493 19.9807ZM67.9924 15.3535L68.964 15.3668L68.9693 17.5115L69.7756 17.5148L69.7834 18.1556L67.9373 18.1456L67.9924 15.3526V15.3535ZM65.8026 15.3518L66.7016 15.3543C66.8634 15.847 66.7462 16.8881 66.7567 17.4815L67.5849 17.5165V18.1498L65.7466 18.1406L65.8017 15.351L65.8026 15.3518ZM25.0954 15.2902L26.0897 15.301C26.1151 15.8029 26.1011 16.3122 26.0923 16.8149C26.0766 17.6921 26.1203 17.3725 26.9389 17.4715L26.931 18.0807L25.0822 18.0874L25.0954 15.2902ZM63.2822 15.3493L64.7733 15.3551L65.4581 18.1556L64.4978 18.1639L64.3046 17.5514C63.416 17.5348 63.765 17.5464 63.5061 18.1506L62.5135 18.139L63.2822 15.3485V15.3493ZM40.3531 18.1082C40.3986 17.757 40.9504 15.554 41.107 15.316L42.5823 15.3335L43.2671 18.1282L42.3042 18.1173L42.1214 17.5206L41.5154 17.5264L41.281 18.1232L40.3523 18.109L40.3531 18.1082ZM29.7163 18.0957C29.8134 17.5531 30.2384 15.683 30.5261 15.2969L31.9656 15.3052L32.6713 18.0999L31.6866 18.104L31.5231 17.5065L30.8934 17.5048L30.7212 18.0899L29.7172 18.0965L29.7163 18.0957ZM16.7953 15.2844L18.3091 15.3068L19.0174 18.0233C18.7953 18.0924 18.3528 18.1506 18.128 18.0533C17.8779 17.9451 17.9654 17.7578 17.8456 17.4765L17.2229 17.4815L17.0585 18.0649L16.0537 18.0791L16.7953 15.2844ZM54.7181 15.4259C57.088 14.4405 57.5052 17.4066 56.2939 18.025C55.3521 18.506 53.6511 18.1348 54.0648 16.184C54.175 15.6664 54.2825 15.6065 54.7181 15.4259ZM51.5951 15.3634C50.1224 15.807 50.5798 18.888 52.927 18.0782C54.1522 17.6554 54.1566 14.5936 51.5951 15.3634ZM27.349 15.2894L27.3123 18.089L28.2279 18.1057L28.3031 17.2718C28.478 17.2252 30.193 17.1952 29.7058 15.8453C29.4496 15.1354 28.1807 15.2436 27.349 15.2902V15.2894ZM59.8795 15.3634C60.4024 15.3335 61.5157 15.2786 61.9372 15.4583C62.2022 15.5715 62.3666 15.7687 62.3168 16.1416C62.2521 16.6309 62.0649 16.4262 61.8568 16.7258C62.1585 16.8856 62.392 16.9414 62.413 17.3159C62.4707 18.3529 60.5695 18.1623 59.8847 18.1415L59.8795 15.3626V15.3634ZM13.4327 15.2769L13.4275 18.0682L14.3659 18.0741C14.3956 17.7245 14.2837 17.1511 14.4341 16.9147C14.6378 17.2085 14.8066 17.7428 14.9553 18.0607L15.9487 18.0741C15.8403 17.5681 15.5552 17.3275 15.3654 16.8923C15.4896 16.7824 15.3611 16.8906 15.529 16.7724C16.2662 16.2498 15.9138 15.6256 15.6768 15.465C15.2894 15.202 14.0064 15.2694 13.4336 15.2761L13.4327 15.2769ZM43.5294 15.336L44.78 15.3376C45.0126 15.7105 45.1114 16.1815 45.2146 16.3938L45.4263 16.6909L45.358 15.3335L46.3305 15.3535L46.3121 18.1215L45.3047 18.1074C44.9899 17.5897 44.7415 16.7292 44.4861 16.432L44.4818 18.1315L43.5224 18.0832L43.5294 15.3368V15.336ZM57.1414 15.3418L57.109 15.9776L57.7832 16.0209V18.0865C58.092 18.1939 58.496 18.1648 58.8283 18.119C58.8414 15.6464 58.6342 16.0808 59.5681 15.9943L59.5515 15.3501L57.1414 15.3426V15.3418ZM48.3813 15.3285L50.4565 15.3451L50.4443 15.9568C49.5356 16.0459 49.5977 15.7945 49.3581 16.1449C49.4692 16.6285 49.2741 16.3555 50.4521 16.4262L50.4346 17.0429L49.3721 17.0462L49.3546 18.1198L48.3472 18.1282L48.3813 15.3285ZM40.6111 15.3143L38.1782 15.3185L38.1738 15.9443L38.8743 15.9993L38.8778 18.114L39.901 18.0974L39.9045 16.0134L40.6173 15.8944L40.6103 15.3135L40.6111 15.3143ZM37.0195 17.4216C36.9075 16.6942 35.4296 16.8998 35.7313 15.8578C35.9499 15.1021 37.1883 15.1695 37.8861 15.4725L37.9167 16.1025C37.5529 16.0109 37.1865 15.7588 36.7422 15.9793C36.737 16.5178 36.9521 16.2406 37.5608 16.6052C38.6706 17.2718 37.5092 18.7915 35.7759 17.9043L35.7663 17.2901C36.3295 17.4124 36.3365 17.7104 37.0203 17.4224L37.0195 17.4216ZM32.9634 15.3019L32.9407 18.0924L33.9429 18.094L33.921 16.9572C34.2691 17.2152 34.2184 17.5539 34.5813 18.104L35.566 18.1123C35.5275 17.6654 35.0667 17.1336 34.9591 16.7558C34.8445 16.3538 35.3789 15.8436 35.4515 15.301L34.4659 15.3102C34.3259 15.6581 34.1834 16.2623 33.8834 16.3754L33.963 15.3185L32.9652 15.3019H32.9634ZM19.3069 15.2794L20.2461 15.2819C20.3555 15.6672 20.1779 15.9127 20.428 16.194L20.798 15.2852L21.815 15.2827C21.5719 16.4437 20.9388 16.0109 21.5667 17.2668C21.6952 17.5239 21.7285 17.7095 21.9348 17.7944L22.6039 15.2835L23.9664 15.2877C24.2541 15.3693 24.7596 17.7378 24.8155 18.0932L23.8396 18.0824L23.6165 17.4773L23.0254 17.499L22.8566 18.0832H20.8775L20.491 17.2044C20.3607 16.993 20.4674 17.1095 20.2785 16.9647L20.24 18.094L19.2789 18.0791L19.3069 15.2786V15.2794ZM7.64428 15.2586L8.57739 15.2677L8.55553 16.3363C8.68321 16.2398 8.59576 16.3255 8.70158 16.1899L8.90272 15.792C8.99629 15.5773 9.075 15.4075 9.20443 15.2602L10.1148 15.2669C10.1069 15.6422 9.6172 16.1874 9.6172 16.5602C9.6172 16.8157 10.0212 17.6862 10.2591 17.7953L10.9762 15.2644L12.4384 15.2569L13.1581 18.0799L12.1507 18.0341L11.9933 17.4615L11.3662 17.4798L11.1975 18.0691L9.20443 18.0374C9.06888 17.732 8.84412 17.1037 8.56428 16.8765L8.56603 18.0574L7.60055 18.0541L7.64515 15.2569L7.64428 15.2586ZM3.32414 15.7288C3.27254 16.5278 3.93718 22.7754 4.00977 23.8831C4.12171 25.5901 4.67615 30.0276 4.97961 31.7013C6.12786 38.0247 6.54151 39.8839 8.50656 45.9168C8.8791 47.0612 9.34785 48.0574 9.77374 49.1252C10.8162 51.7434 12.978 55.5243 14.4839 57.7947C17.9601 63.0362 22.7709 67.899 27.6647 71.5484C30.2673 73.4892 32.8882 75.2344 35.824 76.9347C37.3465 77.8168 37.4445 78.0798 38.0374 77.7294C40.3759 76.3479 42.1127 75.3109 44.2526 73.8137C48.0463 71.1597 51.0844 68.6164 54.0709 65.5986C57.4317 62.2031 59.3688 59.6006 62.0028 55.6691C64.1917 52.4017 66.5538 47.5739 67.8647 43.6931C70.2067 36.7605 71.8561 28.7509 71.933 21.1376C71.947 19.7078 72.0301 18.2888 72.0004 16.8107C71.9715 15.3268 72.5111 15.8794 69.5902 14.7626C59.82 11.0249 49.6589 7.39968 39.7655 3.70118C37.5669 2.87892 38.3418 2.87642 36.5009 3.52557C29.8195 5.88249 23.2178 8.46412 16.5425 10.836C14.3484 11.6158 12.1358 12.4131 9.90842 13.2554C8.91583 13.6307 3.72642 15.4142 3.32414 15.7296V15.7288Z" fill="white"/>
<path fill-rule="evenodd" clip-rule="evenodd" d="M1.57764 14.5653C3.07132 14.0793 4.68656 13.4684 6.15139 12.9133C7.65644 12.3432 9.13875 11.8622 10.6429 11.2938C13.6207 10.1686 16.7121 9.05085 19.7056 8.00638C22.8067 6.9253 25.8071 5.74434 28.7622 4.7265C30.3853 4.16724 31.739 3.64625 33.2572 3.10446L37.7619 1.47242C38.1764 1.38171 41.6683 2.78987 42.2971 3.02206L73.8228 14.5686C73.8569 18.8922 73.7484 23.5011 73.1389 27.6565C72.2574 33.6728 71.9924 34.9229 70.4384 40.4057C68.9386 45.6963 66.3955 50.6948 63.6731 55.342C62.8624 56.7261 62.0202 57.8296 61.1405 59.0913C59.3328 61.6854 58.5895 62.2597 56.9567 64.2654C56.4915 64.8363 55.9921 65.2974 55.4456 65.9066L50.5981 70.4473C48.7021 72.2591 40.0164 78.4319 37.6114 79.4172C37.0203 79.1667 36.1763 78.6549 35.4995 78.2438C28.6214 74.0701 23.013 69.9954 17.8254 64.1039C17.3024 63.5097 16.8896 63.0203 16.3833 62.3945L13.6478 58.7559C12.8004 57.5741 12.0133 56.2117 11.228 54.9018C7.86895 49.2941 5.98523 43.0065 4.38835 36.599C3.95546 34.8613 3.70622 33.0795 3.39489 31.3068C3.09668 29.6098 2.81509 27.7481 2.61132 25.9213C2.48627 24.7961 1.50155 15.5682 1.57676 14.5661L1.57764 14.5653ZM0 13.7306C0.020114 14.6319 0.150418 15.8004 0.221254 16.71L1.86623 31.2019C2.14783 33.0894 2.58071 34.8788 2.92353 36.6931C3.436 39.4029 4.85535 44.1675 5.86017 46.7807C7.06614 49.915 8.39279 52.9843 10.0404 55.7066C13.6933 61.7395 16.6457 65.4338 21.8753 70.151C24.1954 72.2441 26.5295 74.0334 29.3061 75.9801C30.9144 77.1078 35.9822 80.272 37.6106 81.001C38.3425 80.7155 39.0229 80.2362 39.6709 79.8567C40.3137 79.4797 41.0168 79.0544 41.7033 78.6258C42.9959 77.8193 44.3251 76.9097 45.5915 76.0874C46.2036 75.6896 46.8525 75.1944 47.428 74.7575C52.0577 71.2396 55.2978 68.375 59.1002 63.9791C60.1146 62.8064 60.9489 61.6763 61.9328 60.4312C64.2957 57.4418 67.5437 51.8316 69.0112 48.352C74.1044 36.2753 75.3663 26.8826 75.2657 13.6723L40.0653 0.742543C39.475 0.529488 38.1432 -0.119663 37.7208 0.0193217C34.6101 1.04132 31.4364 2.39122 28.2908 3.44485C25.1338 4.50263 21.9689 5.74517 18.8468 6.86121C16.9517 7.53949 0.303459 13.4901 0 13.7306Z" fill="white"/>
<path fill-rule="evenodd" clip-rule="evenodd" d="M3.32609 15.7274C3.72837 15.4128 8.91778 13.6284 9.91036 13.2531C12.1378 12.4109 14.3503 11.6136 16.5445 10.8338C23.2197 8.46186 29.8215 5.88106 36.5028 3.52331C38.3437 2.87416 37.5689 2.87749 39.7674 3.69891C49.6609 7.39741 59.822 11.0227 69.5921 14.7603C72.5121 15.8772 71.9726 15.3246 72.0023 16.8085C72.0312 18.2865 71.949 19.7055 71.935 21.1353C71.858 28.7495 70.2086 36.7582 67.8667 43.6908C66.5558 47.5716 64.1937 52.3994 62.0048 55.6668C59.3707 59.5992 57.4336 62.2008 54.0728 65.5964C51.0872 68.6133 48.0483 71.1574 44.2546 73.8115C42.1146 75.3078 40.3778 76.3448 38.0394 77.7272C37.4464 78.0776 37.3494 77.8137 35.8259 76.9324C32.8893 75.2321 30.2692 73.4869 27.6667 71.5461C22.7737 67.8967 17.963 63.0339 14.4859 57.7924C12.9799 55.522 10.8181 51.7411 9.77569 49.1229C9.35067 48.0551 8.88192 47.0589 8.5085 45.9146C6.54345 39.8816 6.1298 38.0232 4.98156 31.699C4.67722 30.0253 4.12365 25.5878 4.01171 23.8809C3.93913 22.7732 3.27449 16.5255 3.32609 15.7265V15.7274ZM1.57792 14.5647C1.50183 15.5676 2.48654 24.7947 2.61248 25.9199C2.81624 27.7467 3.09784 29.6084 3.39605 31.3053C3.70738 33.0772 3.95662 34.8599 4.3895 36.5976C5.98551 43.0051 7.8701 49.2927 11.2291 54.9003C12.0145 56.2111 12.8015 57.5727 13.6489 58.7545L16.3844 62.3931C16.8908 63.0181 17.3036 63.5083 17.8265 64.1025C23.0142 69.994 28.6225 74.0686 35.5006 78.2423C36.1775 78.6535 37.0214 79.1653 37.6126 79.4158C40.0175 78.4304 48.7033 72.2577 50.5992 70.4459L55.4467 65.9051C55.9942 65.2959 56.4935 64.8349 56.9579 64.2639C58.5906 62.2582 59.334 61.6832 61.1416 59.0899C62.0214 57.8282 62.8635 56.7246 63.6742 55.3406C66.3975 50.6933 68.9397 45.6949 70.4395 40.4043C71.9944 34.9214 72.2585 33.6714 73.1401 27.6551C73.7496 23.4997 73.858 18.8907 73.8239 14.5672L42.2974 3.02063C41.6695 2.78844 38.1775 1.38028 37.7621 1.47099L33.2575 3.10303C31.7393 3.64482 30.3855 4.16664 28.7624 4.72507C25.8074 5.74291 22.8061 6.92387 19.7059 8.00495C16.7124 9.04859 13.6201 10.1671 10.6432 11.2923C9.13903 11.8607 7.65672 12.3418 6.15167 12.9119C4.68684 13.467 3.0716 14.0779 1.57792 14.5639V14.5647Z" fill="#070B15"/>
<path fill-rule="evenodd" clip-rule="evenodd" d="M45.4106 57.0078C45.7875 56.8113 46.6131 56.4568 47.0197 56.3886C48.147 61.2505 45.4797 64.9199 41.7428 66.5095C38.6042 67.8444 34.6881 67.3359 32.1047 65.3277C31.6657 64.9865 30.3225 63.8355 30.1222 63.2504L31.6552 62.5963C31.9333 62.796 32.0173 62.9758 32.1887 63.1689C33.2346 64.3432 35.344 65.5008 36.9714 65.5516C37.2714 63.4419 35.5853 62.4739 35.4043 62.2526L35.7576 61.68C36.3322 61.8364 36.5849 62.1852 37.5259 62.2584C38.5919 62.3416 38.8447 62.1194 39.6239 61.9871L39.839 62.5788C39.2749 63.084 38.0349 63.2721 37.9151 65.6165C39.7682 65.6173 40.9768 65.1413 42.2291 64.4039C43.0214 63.937 44.5649 62.4873 44.7827 61.5859C44.3341 61.303 43.2942 61.2106 42.6908 61.2672C41.6982 61.3604 41.5076 61.7649 40.9339 61.9347C40.7686 61.7632 40.6025 61.635 40.487 61.4195C41.6991 60.1878 41.7857 60.2402 41.9597 58.1496L42.6812 58.098C42.8867 58.6506 42.738 59.0318 43.463 59.7592C43.8015 60.0987 44.495 60.6155 45.1307 60.7088C45.8802 59.5802 45.3747 57.4821 45.4088 57.0078H45.4106ZM29.1287 61.313C30.1458 60.9393 31.7103 60.1087 33.3116 60.762C33.8582 60.9851 33.9858 61.199 34.3759 61.4644C34.6592 61.3529 34.7335 61.2489 34.9093 61.0849C34.6636 60.524 34.3278 60.3833 34.0925 59.6052C33.8118 58.6772 33.9963 58.46 34.0663 57.5587L33.3317 57.428C32.911 58.3352 33.0037 58.4151 32.3347 58.9769C31.873 59.3638 31.0885 59.7409 30.4851 59.8665C30.3312 58.0264 30.2892 57.1526 31.0553 55.5904C31.5092 54.665 32.6583 53.2144 33.5013 52.8524C33.8258 53.1669 34.1424 53.921 34.2289 54.4752C34.3872 55.4906 34.0147 55.6695 33.8284 56.3661C34.1432 56.4701 34.1808 56.5908 34.4633 56.6491C35.811 54.8015 36.8027 55.1061 37.6956 54.8439L37.6754 54.1348C36.2587 54.01 35.6877 53.9676 34.6242 52.7816C34.3829 52.5128 34.4257 52.6601 34.3295 52.2964C35.8905 51.8079 36.424 51.3976 38.5771 51.5041C39.8504 51.5674 41.6842 52.1308 42.3812 52.8465C42.1731 53.261 41.6178 53.6713 41.052 53.9601C40.2203 54.3845 39.9168 54.2131 38.9251 54.2397L38.7625 54.8864C39.7192 55.0628 40.6156 55.6063 41.1849 56.3553C41.4324 56.6807 41.4324 56.8413 41.6344 57.1684C41.9536 57.1592 42.1163 57.0419 42.3716 56.9612C42.1871 56.1672 41.9693 55.8776 42.2588 54.9363C42.4136 54.4328 42.7643 53.7803 43.1211 53.4383C43.6021 53.6022 44.1976 54.5518 44.5352 54.9854L46.0953 54.3695C45.9309 53.7229 44.6078 52.3888 44.1959 52.0725C37.6361 47.0391 29.2415 51.2678 28.6652 57.7351C28.5822 58.6639 28.6364 60.6347 29.1287 61.3121V61.313ZM48.0613 53.544C47.2278 51.6548 44.5938 49.5442 42.4608 48.7377C34.8778 45.8681 27.1628 50.7085 26.541 57.5487C26.367 59.4637 26.6932 60.4558 27.1182 62.0845C26.8742 62.2892 21.8457 64.344 21.2056 64.5221C21.4487 65.2403 22.2935 65.5116 22.6914 66.1966C23.4863 66.0709 26.8384 64.4272 28.0793 64.0694C28.2971 64.2408 28.8979 65.0814 29.1987 65.4293C32.2517 68.9613 37.7795 70.1839 42.4643 68.3721C45.0153 67.3859 46.7757 65.6673 47.9922 63.7223C49.1334 61.8972 49.506 59.8399 49.3809 57.6719C49.3328 56.8355 49.0967 56.317 48.9865 55.5929L64.0082 49.4152C64.6361 49.1663 64.5722 49.2537 64.8311 48.6204C65.0882 47.9929 65.6908 46.9151 65.8158 46.3242L50.3446 52.6351C49.7281 52.8848 48.6594 53.4033 48.0613 53.5448V53.544Z" fill="#070B15"/>
<path fill-rule="evenodd" clip-rule="evenodd" d="M26.0869 41.6437L31.014 41.6678C31.1906 40.6217 31.0603 37.8853 31.0428 36.7001C31.0306 35.8671 31.014 35.0356 31.0061 34.2026C31.0017 33.7948 30.9825 33.4286 30.9711 33.0407C30.9545 32.4673 30.8408 32.0038 31.0971 31.7433L32.603 36.7384C33.0918 38.3172 33.5781 40.0241 34.1448 41.6587L39.3517 41.6853C39.3044 41.0852 36.2856 31.8681 36.0127 30.961C35.6962 29.9098 35.6708 30.1745 36.3179 28.2329C36.6643 27.1942 38.7211 20.5812 38.7859 20.0278L33.8509 20.0194C33.5518 20.3939 32.6668 23.6489 32.4788 24.3313C32.2742 25.0737 32.0328 25.7802 31.8282 26.5509C31.7048 27.017 31.3419 28.3602 31.1399 28.7514C31.0612 28.669 31.007 28.6889 30.9816 28.3011C30.9729 28.1646 30.9974 27.87 31 27.7127C31.0358 25.9009 31.2344 21.2287 31.0743 20.0327L26.1306 20.002L26.0878 41.6445L26.0869 41.6437Z" fill="#070B15"/>
<path fill-rule="evenodd" clip-rule="evenodd" d="M11.707 41.6313L16.6568 41.6422C16.6664 40.6235 16.5318 31.4355 16.5344 31.4288C16.7915 31.8907 17.8715 35.5876 18.1593 36.4673C18.4129 37.2421 18.7303 38.2499 18.9489 39.0564C19.1824 39.9186 19.6118 40.8698 19.7273 41.6413L25.0225 41.6522C24.5022 39.9044 23.876 38.1251 23.3189 36.32C22.7855 34.5914 22.2057 32.6031 21.6232 30.9478C21.2017 29.751 21.6276 29.295 21.9678 28.1331C22.224 27.2593 22.5083 26.2281 22.7829 25.4283C23.0207 24.7368 24.3963 20.4632 24.3902 19.9979L19.4212 19.9913C19.158 20.454 18.9017 21.719 18.7137 22.2983C18.2869 23.6141 16.83 28.9254 16.5353 29.3424C16.426 29.0786 16.8676 21.4128 16.6778 20.0054L11.7508 19.9805L11.7079 41.6305L11.707 41.6313Z" fill="#070B15"/>
<path fill-rule="evenodd" clip-rule="evenodd" d="M57.1808 32.398C57.2542 31.6365 57.4414 30.8259 57.5157 30.0411L58.4252 23.0319C58.6176 24.217 58.5887 23.8675 58.6176 24.217L59.674 32.4072L57.1816 32.3972L57.1808 32.398ZM51.0635 41.6859L55.9739 41.7075L56.8738 36.9787L59.9976 36.9462L60.8363 41.6925L65.7904 41.7225C62.4734 21.9367 64.8092 35.8701 62.162 20.0774L54.7059 20.0566L51.0635 41.6867V41.6859Z" fill="#070B15"/>
<path fill-rule="evenodd" clip-rule="evenodd" d="M40.458 41.6655L45.4445 41.6738L45.4472 33.3447L50.9374 33.3097L50.954 28.4577L45.4926 28.4511L45.4795 24.9864L50.9601 24.9715L50.9794 20.0729L40.493 20.0312L40.458 41.6655Z" fill="#070B15"/>
<path fill-rule="evenodd" clip-rule="evenodd" d="M29.1287 61.3122C30.1458 60.9385 31.7103 60.1079 33.3116 60.7612C33.8581 60.9843 33.9858 61.1982 34.3759 61.4636C34.6592 61.3521 34.7335 61.2481 34.9093 61.0841C34.6636 60.5232 34.3278 60.3826 34.0925 59.6044C33.8118 58.6765 33.9963 58.4592 34.0663 57.5579L33.3317 57.4273C32.911 58.3344 33.0037 58.4143 32.3347 58.9761C31.873 59.3631 31.0885 59.7401 30.4851 59.8657C30.3312 58.0256 30.2892 57.1518 31.0553 55.5897C31.5092 54.6642 32.6583 53.2136 33.5013 52.8516C33.8258 53.1662 34.1424 53.9202 34.2289 54.4744C34.3872 55.4898 34.0147 55.6687 33.8284 56.3653C34.1432 56.4693 34.1808 56.59 34.4633 56.6483C35.811 54.8007 36.8027 55.1053 37.6955 54.8431L37.6754 54.1341C36.2587 54.0092 35.6876 53.9668 34.6242 52.7808C34.3829 52.512 34.4257 52.6593 34.3295 52.2956C35.8905 51.8071 36.424 51.3968 38.5771 51.5033C39.8504 51.5666 41.6842 52.13 42.3812 52.8457C42.1731 53.2602 41.6178 53.6705 41.052 53.9593C40.2203 54.3837 39.9168 54.2123 38.9251 54.2389L38.7625 54.8856C39.7192 55.062 40.6156 55.6055 41.1849 56.3545C41.4324 56.6799 41.4324 56.8405 41.6344 57.1676C41.9536 57.1584 42.1163 57.0411 42.3716 56.9604C42.1871 56.1664 41.9693 55.8768 42.2588 54.9355C42.4136 54.432 42.7643 53.7795 43.1211 53.4375C43.6021 53.6014 44.1976 54.551 44.5352 54.9846L46.0953 54.3688C45.9309 53.7221 44.6078 52.388 44.1959 52.0717C37.6361 47.0383 29.2415 51.267 28.6652 57.7343C28.5822 58.6631 28.6364 60.6339 29.1287 61.3113V61.3122Z" fill="white"/>
<path fill-rule="evenodd" clip-rule="evenodd" d="M37.5267 62.2565C36.5858 62.1825 36.333 61.8346 35.7585 61.6781L35.4052 62.2507C35.5862 62.4721 37.2723 63.44 36.9723 65.5497C35.3448 65.499 33.2355 64.3413 32.1895 63.167C32.0173 62.9739 31.9342 62.795 31.6561 62.5944L30.123 63.2486C30.3224 63.8337 31.6657 64.9847 32.1056 65.3259C34.6889 67.3349 38.605 67.8426 41.7437 66.5077C45.4805 64.9181 48.1478 61.2487 47.0206 56.3867C46.6139 56.455 45.7884 56.8103 45.4114 57.0059C45.3765 57.4803 45.8828 59.5784 45.1333 60.7069C44.4976 60.6137 43.8041 60.0969 43.4656 59.7573C42.7406 59.0299 42.8893 58.6488 42.6838 58.0962L41.9623 58.1477C41.7874 60.2384 41.7017 60.1859 40.4896 61.4176C40.6051 61.6332 40.7712 61.7614 40.9365 61.9328C41.5102 61.763 41.7008 61.3586 42.6934 61.2653C43.2968 61.2088 44.3375 61.3011 44.7853 61.5841C44.5675 62.4846 43.0249 63.9352 42.2317 64.4021C40.9794 65.1395 39.7708 65.6155 37.9177 65.6147C38.0375 63.2702 39.2775 63.0821 39.8416 62.577L39.6265 61.9852C38.8473 62.1176 38.5954 62.3398 37.5285 62.2565H37.5267Z" fill="white"/>
<path fill-rule="evenodd" clip-rule="evenodd" d="M57.1807 32.3983L59.6731 32.4083C59.2716 29.2932 58.9271 26.1307 58.4251 23.0322C58.0202 26.1556 57.6232 29.2791 57.1807 32.3983Z" fill="white"/>
<path fill-rule="evenodd" clip-rule="evenodd" d="M23.1252 16.8647C23.1593 16.5285 23.2047 16.05 23.3569 15.8144C23.4942 16.0333 23.5589 16.5293 23.572 16.8714L23.1252 16.8647ZM19.2808 18.0798L20.2419 18.0948L20.2803 16.9654C20.4692 17.1094 20.3625 16.9937 20.4928 17.2051L20.8794 18.0823H22.8584L23.0272 17.4989L23.6184 17.4773L23.8414 18.0823L24.8174 18.0931C24.7614 17.7369 24.2559 15.3683 23.9682 15.2876L22.6057 15.2835L21.9367 17.7943C21.7303 17.7095 21.6971 17.5247 21.5685 17.2667C20.9415 16.0108 21.5738 16.4436 21.8169 15.2826L20.7998 15.2851L20.4299 16.1939C20.1798 15.9126 20.3582 15.6671 20.248 15.2818L19.3087 15.2793L19.2808 18.0798Z" fill="#070B15"/>
<path fill-rule="evenodd" clip-rule="evenodd" d="M11.594 16.0609C11.7235 15.6215 11.6028 15.9569 11.7436 15.7963L11.8783 16.8674L11.4847 16.8591L11.594 16.0609ZM7.60097 18.055L8.56644 18.0583L8.5647 16.8774C8.84454 17.1046 9.06929 17.7329 9.20485 18.0383L11.1979 18.07L11.3667 17.4807L11.9937 17.4624L12.1511 18.035L13.1586 18.0808L12.4388 15.2578L10.9766 15.2653L10.2595 17.7962C10.0216 17.6863 9.61762 16.8158 9.61762 16.5611C9.61762 16.1883 10.1074 15.6431 10.1152 15.2678L9.20485 15.2611C9.07542 15.4076 8.99758 15.5774 8.90313 15.7929L8.702 16.1908C8.59618 16.3264 8.68276 16.2407 8.55595 16.3372L8.57781 15.2686L7.6447 15.2595L7.6001 18.0567L7.60097 18.055Z" fill="#070B15"/>
<path fill-rule="evenodd" clip-rule="evenodd" d="M43.5244 18.0818L44.4838 18.13L44.4881 16.4306C44.7435 16.7277 44.9927 17.5883 45.3067 18.1059L46.3141 18.1201L46.3325 15.352L45.36 15.332L45.4283 16.6894L45.2166 16.3923C45.1134 16.1801 45.0146 15.7099 44.782 15.3362L43.5314 15.3345L43.5244 18.0809V18.0818Z" fill="#070B15"/>
<path fill-rule="evenodd" clip-rule="evenodd" d="M55.7063 15.9964C55.9197 16.3684 56.0736 17.5436 55.4554 17.5228C54.9219 17.5053 54.9202 16.435 55.2175 15.9914L55.7072 15.9964H55.7063ZM54.7199 15.4263C54.2844 15.6069 54.1768 15.6669 54.0666 16.1845C53.653 18.1353 55.3539 18.5065 56.2958 18.0254C57.507 17.4071 57.089 14.441 54.7199 15.4263Z" fill="#070B15"/>
<path fill-rule="evenodd" clip-rule="evenodd" d="M51.8349 16.7262C51.8349 16.454 51.8 16.1503 52.0072 16.0213C52.5363 15.6917 53.0138 16.4149 52.4917 17.4935L52.0151 17.4869C51.835 17.1798 51.8358 17.1756 51.8341 16.7262H51.8349ZM51.598 15.3638C50.1253 15.8074 50.5826 18.8884 52.9299 18.0786C54.1551 17.6558 54.1594 14.594 51.598 15.3638Z" fill="#070B15"/>
<path fill-rule="evenodd" clip-rule="evenodd" d="M60.8282 17.0102C61.073 16.9777 61.2007 17.0135 61.3468 17.0992C61.4272 17.4937 61.2418 17.6127 60.8238 17.5836L60.8282 17.0102ZM60.8273 15.9341C61.2348 15.8675 61.3249 15.9765 61.3476 16.3702L60.8159 16.4343L60.8282 15.9349L60.8273 15.9341ZM59.8881 18.142C60.5728 18.162 62.474 18.3534 62.4163 17.3164C62.3953 16.9419 62.1618 16.8853 61.8601 16.7264C62.0674 16.4268 62.2545 16.6315 62.3201 16.1421C62.37 15.7693 62.2055 15.5712 61.9406 15.4589C61.5182 15.2791 60.4049 15.334 59.8828 15.364L59.8881 18.1429V18.142Z" fill="#070B15"/>
<path fill-rule="evenodd" clip-rule="evenodd" d="M14.4035 16.4331C14.3178 15.7756 14.463 15.7498 14.9737 15.9587L14.9641 16.324C14.7778 16.4214 14.6536 16.4805 14.4035 16.4331ZM13.4302 18.0684L14.3685 18.0742C14.3983 17.7247 14.2863 17.1513 14.4368 16.9149C14.6405 17.2087 14.8093 17.743 14.958 18.0609L15.9514 18.0742C15.843 17.5682 15.5579 17.3277 15.3681 16.8925C15.4923 16.7826 15.3637 16.8908 15.5317 16.7726C16.2689 16.25 15.9164 15.6258 15.6794 15.4652C15.292 15.2022 14.0091 15.2696 13.4363 15.2762L13.431 18.0676L13.4302 18.0684Z" fill="#070B15"/>
<path fill-rule="evenodd" clip-rule="evenodd" d="M32.9424 18.0921L33.9446 18.0938L33.9227 16.957C34.2708 17.2149 34.2201 17.5537 34.583 18.1038L35.5677 18.1121C35.5292 17.6652 35.0683 17.1334 34.9608 16.7555C34.8462 16.3536 35.3805 15.8434 35.4531 15.3008L34.4675 15.3099C34.3276 15.6578 34.1851 16.262 33.8851 16.3752L33.9647 15.3183L32.9669 15.3016L32.9441 18.0921H32.9424Z" fill="#070B15"/>
<path fill-rule="evenodd" clip-rule="evenodd" d="M31.2538 15.8736L31.4261 16.8906L30.988 16.8823C30.9845 16.5003 31.0658 16.0983 31.2538 15.8736ZM29.7182 18.0965L30.7221 18.0899L30.8944 17.5048L31.524 17.5065L31.6876 18.104L32.6723 18.0999L31.9666 15.3052L30.5271 15.2969C30.2394 15.683 29.8144 17.5531 29.7173 18.0957L29.7182 18.0965Z" fill="#070B15"/>
<path fill-rule="evenodd" clip-rule="evenodd" d="M41.7673 15.8963L42.0795 16.8992L41.6055 16.9133L41.7673 15.8963ZM40.355 18.1084L41.2837 18.1226L41.5181 17.5259L42.1241 17.52L42.3069 18.1168L43.2698 18.1276L42.585 15.3329L41.1097 15.3154C40.9532 15.5535 40.4013 17.7564 40.3559 18.1076L40.355 18.1084Z" fill="#070B15"/>
<path fill-rule="evenodd" clip-rule="evenodd" d="M17.4951 15.8093C17.5642 15.8859 17.5817 15.8052 17.663 16.0856C17.6866 16.1672 17.6919 16.2879 17.7068 16.3886C17.7365 16.5825 17.7828 16.6707 17.789 16.8546L17.3115 16.8671L17.4943 15.8093H17.4951ZM16.0557 18.0789L17.0605 18.0647L17.2249 17.4813L17.8476 17.4763C17.9682 17.7576 17.8799 17.9449 18.13 18.0531C18.3548 18.1504 18.7973 18.0922 19.0194 18.0231L18.3111 15.3067L16.7973 15.2842L16.0557 18.0789Z" fill="#070B15"/>
<path fill-rule="evenodd" clip-rule="evenodd" d="M63.9346 16.9452C63.7151 16.663 63.8559 16.2111 64.022 15.8924C64.0605 15.9448 64.0719 15.9248 64.1121 16.068C64.4252 17.1765 64.1488 16.9127 63.9346 16.9452ZM62.5161 18.1403L63.5087 18.1519C63.7676 17.5477 63.4177 17.5361 64.3071 17.5527L64.5004 18.1652L65.4606 18.1569L64.7759 15.3564L63.2848 15.3506L62.5161 18.1411V18.1403Z" fill="#070B15"/>
<path fill-rule="evenodd" clip-rule="evenodd" d="M52.4417 44.4107C52.1129 44.2625 52.3176 44.4548 51.8969 43.824C51.6914 43.516 51.5917 43.4353 51.4649 43.1598L50.6201 43.1557L50.6236 45.7523L51.3932 45.7548L51.4255 44.4398C52.252 44.8934 51.7893 45.9703 53.2183 45.7298L53.2341 43.1623C52.1287 43.0741 52.3945 43.3363 52.4409 44.4107H52.4417Z" fill="#070B15"/>
<path fill-rule="evenodd" clip-rule="evenodd" d="M48.4668 43.7744C49.2346 43.3109 49.6614 44.7573 49.0571 45.1027C48.1975 45.5937 47.8616 44.1406 48.4668 43.7744ZM48.2123 43.1835C46.6434 43.7095 47.1865 46.3194 49.2889 45.7369C50.8271 45.3108 50.3051 42.482 48.2123 43.1835Z" fill="#070B15"/>
<path fill-rule="evenodd" clip-rule="evenodd" d="M28.2935 16.604L28.2795 15.9349L28.7631 15.9757L28.806 16.495C28.6267 16.5766 28.5498 16.629 28.2935 16.604ZM27.3149 18.0896L28.2306 18.1062L28.3058 17.2723C28.4807 17.2257 30.1956 17.1958 29.7085 15.8459C29.4523 15.136 28.1833 15.2441 27.3517 15.2908L27.3149 18.0904V18.0896Z" fill="#070B15"/>
<path fill-rule="evenodd" clip-rule="evenodd" d="M33.8766 43.7864C34.7152 43.2446 34.9575 44.7643 34.4887 45.0606C33.6299 45.6024 33.2408 44.1967 33.8766 43.7864ZM33.7987 43.1265C32.1572 43.4094 32.3383 45.9877 34.4625 45.7539C36.0445 45.5799 36.0567 42.737 33.7987 43.1265Z" fill="#070B15"/>
<path fill-rule="evenodd" clip-rule="evenodd" d="M37.021 17.4207C36.3371 17.7086 36.3301 17.4107 35.7669 17.2884L35.7765 17.9026C37.5107 18.7889 38.6721 17.2701 37.5614 16.6034C36.9536 16.2381 36.7376 16.5152 36.7429 15.9776C37.1871 15.757 37.5536 16.0092 37.9174 16.1007L37.8868 15.4707C37.1889 15.1686 35.9506 15.1012 35.7319 15.8561C35.4302 16.898 36.9082 16.6925 37.0201 17.4199L37.021 17.4207Z" fill="#070B15"/>
<path fill-rule="evenodd" clip-rule="evenodd" d="M25.5427 43.9125C25.7386 44.1555 25.7517 44.4085 25.7806 44.7256L25.2497 44.709L25.5427 43.9125ZM24.0674 45.6993C25.0573 45.7101 24.7504 45.8733 25.1054 45.294L25.98 45.284C26.4181 45.8566 25.917 45.6868 27.0032 45.726C26.9192 45.2732 26.2476 43.4256 25.98 43.1202L25.1054 43.1094L24.0674 45.6993Z" fill="#070B15"/>
<path fill-rule="evenodd" clip-rule="evenodd" d="M28.8109 44.939C28.5626 45.6555 28.0982 45.0455 27.904 44.8216L27.1904 44.8375C27.2447 46.0068 28.9989 45.966 29.4729 45.3509C29.8262 44.8924 29.6015 44.4297 29.2622 44.2299C28.8302 43.9752 28.2101 44.0834 28.0956 43.6906C28.3387 43.4434 28.3946 43.4892 28.6771 43.7031C29.0409 43.9777 28.9911 43.8737 29.5105 43.8687C29.5237 42.7718 27.7685 42.9433 27.4274 43.4035C26.6474 44.4546 28.5459 44.5503 28.8118 44.9381L28.8109 44.939Z" fill="#070B15"/>
<path fill-rule="evenodd" clip-rule="evenodd" d="M41.6093 43.9309C41.8638 44.1065 41.8891 44.3371 41.946 44.7457L41.4073 44.7365L41.6093 43.9301V43.9309ZM40.266 45.7386L41.0225 45.7427L41.2289 45.31L42.1244 45.3058L42.3203 45.7419L43.1554 45.7386C43.1275 45.4939 42.2844 43.4166 42.134 43.1378L41.284 43.1328C41.1353 43.3442 40.2616 45.3799 40.2651 45.7394L40.266 45.7386Z" fill="#070B15"/>
<path fill-rule="evenodd" clip-rule="evenodd" d="M31.581 45.0226C31.4726 45.1658 31.4009 45.3114 31.0904 45.2349C30.8709 45.1808 30.766 44.9577 30.6156 44.8196L29.9614 44.8395C30.0445 46.0579 31.721 45.9206 32.1845 45.4354C32.5649 45.0368 32.4451 44.4825 32.0393 44.2453C31.5338 43.9499 30.8438 44.1296 30.898 43.607C31.6318 43.3382 30.8788 43.9033 32.2981 43.8666C32.2361 42.7498 30.4625 42.942 30.1302 43.4813C29.4542 44.5815 31.4018 44.4317 31.581 45.0218V45.0226Z" fill="#070B15"/>
<path fill-rule="evenodd" clip-rule="evenodd" d="M48.3486 18.1278L49.3561 18.1195L49.3736 17.0459L50.4361 17.0426L50.4536 16.4259C49.2756 16.3543 49.4706 16.6281 49.3596 16.1446C49.5992 15.7942 49.5362 16.0455 50.4457 15.9565L50.458 15.3448L48.3827 15.3281L48.3486 18.1278Z" fill="#070B15"/>
<path fill-rule="evenodd" clip-rule="evenodd" d="M38.5133 44.8376L37.8793 44.7086C37.5443 45.1613 37.4271 45.2778 36.8937 45.0423C36.7826 44.7618 36.6882 44.1402 36.9182 43.8614C37.2688 43.4361 37.644 43.8414 37.874 44.0336L38.5238 43.8971C38.2737 42.7653 35.8119 42.5889 35.9457 44.6095C36.0646 46.4022 38.752 45.897 38.5133 44.8376Z" fill="#070B15"/>
<path fill-rule="evenodd" clip-rule="evenodd" d="M57.1108 15.9768L57.7851 16.0201V18.0857C58.0938 18.1931 58.4978 18.1639 58.8302 18.1182C58.8433 15.6456 58.636 16.08 59.57 15.9934L59.5534 15.3493L57.1432 15.3418L57.1108 15.9776V15.9768Z" fill="#070B15"/>
<path fill-rule="evenodd" clip-rule="evenodd" d="M38.1758 15.9446L38.8754 16.0004L38.8798 18.1151L39.903 18.0985L39.9073 16.0145L40.6201 15.8955L40.6131 15.3154L38.1802 15.3188L38.1758 15.9446Z" fill="#070B15"/>
<path fill-rule="evenodd" clip-rule="evenodd" d="M25.085 18.0882L26.9337 18.0815L26.9416 17.4723C26.123 17.3733 26.0793 17.6929 26.095 16.8157C26.1038 16.3122 26.1178 15.8037 26.0924 15.3018L25.0981 15.291L25.085 18.0882Z" fill="#070B15"/>
<path fill-rule="evenodd" clip-rule="evenodd" d="M67.939 18.1475L69.7851 18.1575L69.7772 17.5158L68.9709 17.5125L68.9657 15.3678L67.9941 15.3545L67.939 18.1475Z" fill="#070B15"/>
<path fill-rule="evenodd" clip-rule="evenodd" d="M65.75 18.1414L67.5874 18.1506V17.5172L66.7592 17.4823C66.7487 16.888 66.8659 15.8477 66.7041 15.355L65.8051 15.3525L65.75 18.1422V18.1414Z" fill="#070B15"/>
<path fill-rule="evenodd" clip-rule="evenodd" d="M42.9863 43.7391L43.8197 43.7807L43.8469 45.729L44.6549 45.7448L44.6873 43.794L45.6003 43.7558L45.5968 43.174L43.0029 43.1357L42.9863 43.7391Z" fill="#070B15"/>
<path fill-rule="evenodd" clip-rule="evenodd" d="M45.9692 45.7381L46.8263 45.7389V43.1548L45.971 43.1465L45.9692 45.7381Z" fill="#070B15"/>
<path fill-rule="evenodd" clip-rule="evenodd" d="M39.041 45.7156C40.0686 45.8246 39.8788 45.7355 39.8727 44.8567C39.8692 44.3498 39.9208 43.6216 39.8517 43.1464L39.0585 43.1348L39.0419 45.7156H39.041Z" fill="#070B15"/>
<path fill-rule="evenodd" clip-rule="evenodd" d="M48.4672 43.7743C47.862 44.1405 48.1978 45.5928 49.0575 45.1026C49.6618 44.7572 49.235 43.3108 48.4672 43.7743Z" fill="white"/>
<path fill-rule="evenodd" clip-rule="evenodd" d="M33.8764 43.7854C33.2406 44.1956 33.6298 45.6005 34.4886 45.0595C34.9573 44.7641 34.7151 43.2444 33.8764 43.7854Z" fill="white"/>
<path fill-rule="evenodd" clip-rule="evenodd" d="M51.8347 16.7256C51.8365 17.175 51.8347 17.1792 52.0158 17.4863L52.4924 17.493C53.0153 16.4144 52.537 15.6911 52.0079 16.0207C51.8006 16.1497 51.8347 16.4535 51.8356 16.7256H51.8347Z" fill="white"/>
<path fill-rule="evenodd" clip-rule="evenodd" d="M55.7061 15.9962L55.2164 15.9912C54.9199 16.4348 54.9208 17.5042 55.4543 17.5225C56.0725 17.5433 55.9195 16.3691 55.7052 15.9962H55.7061Z" fill="white"/>
<path fill-rule="evenodd" clip-rule="evenodd" d="M63.9349 16.9454C64.1492 16.9129 64.4255 17.1767 64.1124 16.0682C64.0722 15.925 64.0608 15.945 64.0224 15.8926C63.8562 16.2113 63.7154 16.6632 63.9349 16.9454Z" fill="#F1F0F8"/>
<path fill-rule="evenodd" clip-rule="evenodd" d="M23.125 16.8638L23.5719 16.8704C23.5588 16.5292 23.494 16.0324 23.3567 15.8135C23.2055 16.049 23.1591 16.5275 23.125 16.8638Z" fill="#D9DDEB"/>
<path fill-rule="evenodd" clip-rule="evenodd" d="M28.2933 16.6037C28.5504 16.6278 28.6274 16.5762 28.8058 16.4947L28.7629 15.9753L28.2793 15.9346L28.2933 16.6037Z" fill="#F1F0F8"/>
<path fill-rule="evenodd" clip-rule="evenodd" d="M14.403 16.4331C14.6531 16.4805 14.7773 16.4214 14.9636 16.324L14.9732 15.9587C14.4616 15.7498 14.3173 15.7764 14.403 16.4331Z" fill="#F1F0F8"/>
<path fill-rule="evenodd" clip-rule="evenodd" d="M17.312 16.8674L17.7895 16.8549C17.7834 16.6709 17.737 16.5827 17.7073 16.3888C17.6916 16.2881 17.6872 16.1674 17.6636 16.0859C17.5822 15.8054 17.5647 15.8861 17.4957 15.8096L17.3129 16.8674H17.312Z" fill="#F1F0F8"/>
<path fill-rule="evenodd" clip-rule="evenodd" d="M31.2537 15.873C31.0657 16.0978 30.9852 16.4997 30.9879 16.8817L31.426 16.8901L31.2537 15.873Z" fill="#F1F0F8"/>
<path fill-rule="evenodd" clip-rule="evenodd" d="M60.8232 17.5833C61.2413 17.6124 61.4267 17.4934 61.3462 17.0989C61.201 17.0132 61.0734 16.9774 60.8276 17.0099L60.8232 17.5833Z" fill="#F1F0F8"/>
<path fill-rule="evenodd" clip-rule="evenodd" d="M41.4067 44.7363L41.9454 44.7454C41.8886 44.3368 41.8641 44.1063 41.6088 43.9307L41.4067 44.7371V44.7363Z" fill="#F1F0F8"/>
<path fill-rule="evenodd" clip-rule="evenodd" d="M11.4858 16.8587L11.8794 16.867L11.7447 15.7959C11.6039 15.9565 11.7246 15.6211 11.5952 16.0606L11.4858 16.8587Z" fill="#F1F0F8"/>
<path fill-rule="evenodd" clip-rule="evenodd" d="M25.249 44.7086L25.7799 44.7252C25.751 44.4081 25.7379 44.1551 25.542 43.9121L25.249 44.7086Z" fill="#F1F0F8"/>
<path fill-rule="evenodd" clip-rule="evenodd" d="M41.605 16.9135L42.079 16.8993L41.7668 15.8965L41.605 16.9135Z" fill="#F1F0F8"/>
<path fill-rule="evenodd" clip-rule="evenodd" d="M60.8153 16.4344L61.347 16.3704C61.3243 15.9767 61.2342 15.8677 60.8267 15.9343L60.8145 16.4336L60.8153 16.4344Z" fill="#F1F0F8"/>
</g>
<defs>
<clipPath id="clip0_95_2659">
<rect width="75.2727" height="81" fill="white"/>
</clipPath>
</defs>
</svg>
