<svg width="39" height="28" viewBox="0 0 39 28" fill="none" xmlns="http://www.w3.org/2000/svg">
<g clip-path="url(#clip0_218_5)">
<rect width="38.5" height="28" rx="3.5" fill="#1A47B8"/>
<path fill-rule="evenodd" clip-rule="evenodd" d="M4.09562 0H0V4.66667L34.3822 28L38.5 28V23.3333L4.09562 0Z" fill="white"/>
<path d="M1.36601 0L38.5 25.2661V28H37.166L0 2.70771V0H1.36601Z" fill="#F93939"/>
<path fill-rule="evenodd" clip-rule="evenodd" d="M34.8334 0H38.5001V4.66667C38.5001 4.66667 14.6847 20.2124 3.66676 28H9.15527e-05V23.3333L34.8334 0Z" fill="white"/>
<path d="M38.5 0H37.2566L0 25.2879V28H1.36601L38.5 2.72816V0Z" fill="#F93939"/>
<path fill-rule="evenodd" clip-rule="evenodd" d="M14.0013 0H24.5307V8.63673H38.5V19.3576H24.5307V28H14.0013V19.3576H0V8.63673H14.0013V0Z" fill="white"/>
<path fill-rule="evenodd" clip-rule="evenodd" d="M16.2105 0H22.2895V10.7692H38.5V17.2308H22.2895V28H16.2105V17.2308H0V10.7692H16.2105V0Z" fill="#F93939"/>
</g>
<defs>
<clipPath id="clip0_218_5">
<rect width="38.5" height="28" rx="3.5" fill="white"/>
</clipPath>
</defs>
</svg>
